<svg xmlns="http://www.w3.org/2000/svg" version="1.1" width="256"
     height="256" viewBox="0 0 256 256">
    <path d="M160,89.599998L192,89.599998L192,102.399998L179.2,102.399998L179.2,185.6C179.20001000000002,189.13461999999998,176.33463,192,172.8,192L83.19999899999999,192C79.665378,192,76.800001,189.13461999999998,76.799998,185.6L76.799998,102.399998L64,102.399998L64,89.599998L95.999998,89.599998L95.999998,70.4000006C96.00000399999999,66.8653772,98.865376,64.0000011444091,102.399998,64L153.599998,64C157.13462800000002,63.9999977111818,160.00001500000002,66.8653772,160,70.4000006L160,89.599998ZM166.40001,102.399998L89.6,102.399998L89.6,179.2L166.40001,179.2L166.40001,102.399998ZM108.799999,121.599998L121.600002,121.599998L121.600002,160L108.799999,160L108.799999,121.599998ZM134.400002,121.599998L147.200005,121.599998L147.200005,160L134.400002,160L134.400002,121.599998ZM108.799999,76.800001L108.799999,89.599998L147.200005,89.599998L147.200005,76.800001L108.799999,76.800001Z"
          fill="#FFFFFF" fill-opacity="1" style="mix-blend-mode:passthrough"/>
    <path d="M220,28L36,28C31.5750008,28,28,31.5750008,28,36L28,220C28,224.425,31.5750008,228,36,228L220,228C224.425,228,228,224.425,228,220L228,36C228,31.5750008,224.425,28,220,28ZM210,210L46,210L46,46L210,46L210,210Z"
          fill="#FFFFFF" fill-opacity="1" style="mix-blend-mode:passthrough"/>
</svg>