<svg class="icon" viewBox="0 0 1024 1024" version="1.1" xmlns="http://www.w3.org/2000/svg"
     width="256" height="256">
    <path d="M669.93516072 100.13219076L234.39015383 100.13219076C164.8472287 100.13219076 108.8261002 156.34914272 108.8261002 225.69626837L108.8261002 789.60982221C108.8261002 859.1527837 165.04304637 915.1738998 234.39015383 915.1738998L798.30372584 915.1738998C867.84671132 915.1738998 923.86777949 858.95694702 923.86777949 789.60982221L923.86777949 360.45566083 861.17226581 423.15117449 861.17226581 789.60982221C861.17226581 824.41399764 833.13815391 852.47838614 798.30372584 852.47838614L234.39015383 852.47838614C199.58601477 852.47838614 171.52161386 824.44423208 171.52161386 789.60982221L171.52161386 225.69626837C171.52161386 190.89209293 199.5557861 162.82771021 234.39015383 162.82771021L607.23964623 162.82771021 669.93516072 100.13219076ZM373.88444816 646.4245259L564.0711236 592.42843874 428.2252514 457.41323747 373.88444816 646.4245259ZM881.84792804 276.59009017L746.00036307 141.57312999 447.13208114 438.6020142 582.97795333 573.60581897 881.84792804 276.59009017ZM944.98561985 163.17542501L860.07721888 78.79508676C846.00962172 64.81166239 822.44341797 65.57302608 807.43723525 80.48183185L766.67638814 120.97867818 902.52485984 255.99475643 943.28310745 215.48563744C958.28929017 200.5759489 959.0506175 177.16060251 944.98561985 163.17542501Z"
          fill="#ffffff"/>
</svg>