<svg xmlns="http://www.w3.org/2000/svg" fill="none" version="1.1" width="256" height="256" viewBox="0 0 256 256">
    <path d="M220,28L36,28C31.5750005,28,28,31.5750005,28,36L28,220C28,224.425,31.5750005,228,36,228L220,228C224.425,228,228,224.425,228,220L228,36C228,31.5750005,224.425,28,220,28ZM210,210L46,210L46,46L210,46L210,210Z"
          fill="#FFFFFF" fill-opacity="1" style="mix-blend-mode:passthrough"/>
    <path d="M136.685829,87.31036974121093L168.68999,119.31590274121095L99.194305,188.81453474121093L70.6600475,191.96459474121093C66.8401411,192.38710474121095,63.61272502,189.15705474121094,64.037714019,185.33699474121096L67.2126315,156.78151674121094L136.685829,87.31036974121093ZM188.48448000000002,82.54528974121094L173.45737,67.51754284121094C168.76999999999998,62.82996534121094,161.167686,62.82996534121094,156.480309,67.51754284121094L142.343185,81.65527574121094L174.34735999999998,113.66080074121093L188.48448000000002,99.52307174121094C193.17184,94.83299274121094,193.17184,87.23286674121094,188.48448000000002,82.54528974121094Z"
          fill="#FFFFFF" fill-opacity="1" style="mix-blend-mode:passthrough"/>
</svg>