<svg class="icon" viewBox="0 0 1024 1024" version="1.1" xmlns="http://www.w3.org/2000/svg"
     width="256" height="256">
    <path d="M512 932.266667a85.333333 85.333333 0 0 1-42.666667-10.666667l-12.8-7.253333A647.253333 647.253333 0 0 1 128 351.146667v-5.973334a85.333333 85.333333 0 0 1 42.666667-74.666666l298.666666-168.106667a85.333333 85.333333 0 0 1 85.333334 0l298.666666 168.106667a85.333333 85.333333 0 0 1 42.666667 74.666666v5.973334a647.253333 647.253333 0 0 1-329.386667 563.2l-12.8 7.253333a85.333333 85.333333 0 0 1-41.813333 10.666667z"
          fill="#ffffff"/>
</svg>